<svg xmlns="http://www.w3.org/2000/svg" viewBox="0 0 736 510" width="736" height="510">
<rect width="100%" height="100%" fill="#ffffff"/>
<rect x="0" y="0" width="32" height="32" fill="#3b4252"/>
<rect x="32" y="0" width="32" height="32" fill="#3b4252"/>
<rect x="64" y="0" width="32" height="32" fill="#3b4252"/>
<rect x="96" y="0" width="32" height="32" fill="#3b4252"/>
<rect x="128" y="0" width="32" height="32" fill="#3b4252"/>
<rect x="160" y="0" width="32" height="32" fill="#3b4252"/>
<rect x="192" y="0" width="32" height="32" fill="#3b4252"/>
<rect x="224" y="0" width="32" height="32" fill="#3b4252"/>
<rect x="256" y="0" width="32" height="32" fill="#3b4252"/>
<rect x="288" y="0" width="32" height="32" fill="#3b4252"/>
<rect x="320" y="0" width="32" height="32" fill="#3b4252"/>
<rect x="352" y="0" width="32" height="32" fill="#3b4252"/>
<rect x="384" y="0" width="32" height="32" fill="#3b4252"/>
<rect x="416" y="0" width="32" height="32" fill="#3b4252"/>
<rect x="448" y="0" width="32" height="32" fill="#3b4252"/>
<rect x="480" y="0" width="32" height="32" fill="#3b4252"/>
<rect x="512" y="0" width="32" height="32" fill="#3b4252"/>
<rect x="544" y="0" width="32" height="32" fill="#3b4252"/>
<rect x="576" y="0" width="32" height="32" fill="#3b4252"/>
<rect x="608" y="0" width="32" height="32" fill="#3b4252"/>
<rect x="640" y="0" width="32" height="32" fill="#3b4252"/>
<rect x="672" y="0" width="32" height="32" fill="#3b4252"/>
<rect x="704" y="0" width="32" height="32" fill="#3b4252"/>
<rect x="0" y="32" width="32" height="32" fill="#3b4252"/>
<rect x="32" y="32" width="32" height="32" fill="#2e9e4f"/>
<rect x="64" y="32" width="32" height="32" fill="#eceff4"/>
<rect x="96" y="32" width="32" height="32" fill="#eceff4"/>
<rect x="128" y="32" width="32" height="32" fill="#eceff4"/>
<rect x="160" y="32" width="32" height="32" fill="#eceff4"/>
<rect x="192" y="32" width="32" height="32" fill="#eceff4"/>
<rect x="224" y="32" width="32" height="32" fill="#eceff4"/>
<rect x="256" y="32" width="32" height="32" fill="#eceff4"/>
<rect x="288" y="32" width="32" height="32" fill="#eceff4"/>
<rect x="320" y="32" width="32" height="32" fill="#3b4252"/>
<rect x="352" y="32" width="32" height="32" fill="#eceff4"/>
<rect x="384" y="32" width="32" height="32" fill="#eceff4"/>
<rect x="416" y="32" width="32" height="32" fill="#eceff4"/>
<rect x="448" y="32" width="32" height="32" fill="#eceff4"/>
<rect x="480" y="32" width="32" height="32" fill="#eceff4"/>
<rect x="512" y="32" width="32" height="32" fill="#eceff4"/>
<rect x="544" y="32" width="32" height="32" fill="#eceff4"/>
<rect x="576" y="32" width="32" height="32" fill="#eceff4"/>
<rect x="608" y="32" width="32" height="32" fill="#eceff4"/>
<rect x="640" y="32" width="32" height="32" fill="#eceff4"/>
<rect x="672" y="32" width="32" height="32" fill="#eceff4"/>
<rect x="704" y="32" width="32" height="32" fill="#3b4252"/>
<rect x="0" y="64" width="32" height="32" fill="#3b4252"/>
<rect x="32" y="64" width="32" height="32" fill="#3b4252"/>
<rect x="64" y="64" width="32" height="32" fill="#3b4252"/>
<rect x="96" y="64" width="32" height="32" fill="#eceff4"/>
<rect x="128" y="64" width="32" height="32" fill="#3b4252"/>
<rect x="160" y="64" width="32" height="32" fill="#eceff4"/>
<rect x="192" y="64" width="32" height="32" fill="#3b4252"/>
<rect x="224" y="64" width="32" height="32" fill="#eceff4"/>
<rect x="256" y="64" width="32" height="32" fill="#3b4252"/>
<rect x="288" y="64" width="32" height="32" fill="#eceff4"/>
<rect x="320" y="64" width="32" height="32" fill="#3b4252"/>
<rect x="352" y="64" width="32" height="32" fill="#3b4252"/>
<rect x="384" y="64" width="32" height="32" fill="#3b4252"/>
<rect x="416" y="64" width="32" height="32" fill="#eceff4"/>
<rect x="448" y="64" width="32" height="32" fill="#3b4252"/>
<rect x="480" y="64" width="32" height="32" fill="#eceff4"/>
<rect x="512" y="64" width="32" height="32" fill="#3b4252"/>
<rect x="544" y="64" width="32" height="32" fill="#3b4252"/>
<rect x="576" y="64" width="32" height="32" fill="#3b4252"/>
<rect x="608" y="64" width="32" height="32" fill="#3b4252"/>
<rect x="640" y="64" width="32" height="32" fill="#3b4252"/>
<rect x="672" y="64" width="32" height="32" fill="#eceff4"/>
<rect x="704" y="64" width="32" height="32" fill="#3b4252"/>
<rect x="0" y="96" width="32" height="32" fill="#3b4252"/>
<rect x="32" y="96" width="32" height="32" fill="#eceff4"/>
<rect x="64" y="96" width="32" height="32" fill="#eceff4"/>
<rect x="96" y="96" width="32" height="32" fill="#eceff4"/>
<rect x="128" y="96" width="32" height="32" fill="#eceff4"/>
<rect x="160" y="96" width="32" height="32" fill="#eceff4"/>
<rect x="192" y="96" width="32" height="32" fill="#3b4252"/>
<rect x="224" y="96" width="32" height="32" fill="#eceff4"/>
<rect x="256" y="96" width="32" height="32" fill="#3b4252"/>
<rect x="288" y="96" width="32" height="32" fill="#eceff4"/>
<rect x="320" y="96" width="32" height="32" fill="#eceff4"/>
<rect x="352" y="96" width="32" height="32" fill="#eceff4"/>
<rect x="384" y="96" width="32" height="32" fill="#eceff4"/>
<rect x="416" y="96" width="32" height="32" fill="#eceff4"/>
<rect x="448" y="96" width="32" height="32" fill="#3b4252"/>
<rect x="480" y="96" width="32" height="32" fill="#eceff4"/>
<rect x="512" y="96" width="32" height="32" fill="#eceff4"/>
<rect x="544" y="96" width="32" height="32" fill="#eceff4"/>
<rect x="576" y="96" width="32" height="32" fill="#eceff4"/>
<rect x="608" y="96" width="32" height="32" fill="#eceff4"/>
<rect x="640" y="96" width="32" height="32" fill="#3b4252"/>
<rect x="672" y="96" width="32" height="32" fill="#eceff4"/>
<rect x="704" y="96" width="32" height="32" fill="#3b4252"/>
<rect x="0" y="128" width="32" height="32" fill="#3b4252"/>
<rect x="32" y="128" width="32" height="32" fill="#eceff4"/>
<rect x="64" y="128" width="32" height="32" fill="#3b4252"/>
<rect x="96" y="128" width="32" height="32" fill="#3b4252"/>
<rect x="128" y="128" width="32" height="32" fill="#3b4252"/>
<rect x="160" y="128" width="32" height="32" fill="#3b4252"/>
<rect x="192" y="128" width="32" height="32" fill="#3b4252"/>
<rect x="224" y="128" width="32" height="32" fill="#eceff4"/>
<rect x="256" y="128" width="32" height="32" fill="#3b4252"/>
<rect x="288" y="128" width="32" height="32" fill="#eceff4"/>
<rect x="320" y="128" width="32" height="32" fill="#3b4252"/>
<rect x="352" y="128" width="32" height="32" fill="#3b4252"/>
<rect x="384" y="128" width="32" height="32" fill="#3b4252"/>
<rect x="416" y="128" width="32" height="32" fill="#eceff4"/>
<rect x="448" y="128" width="32" height="32" fill="#3b4252"/>
<rect x="480" y="128" width="32" height="32" fill="#eceff4"/>
<rect x="512" y="128" width="32" height="32" fill="#3b4252"/>
<rect x="544" y="128" width="32" height="32" fill="#3b4252"/>
<rect x="576" y="128" width="32" height="32" fill="#3b4252"/>
<rect x="608" y="128" width="32" height="32" fill="#eceff4"/>
<rect x="640" y="128" width="32" height="32" fill="#3b4252"/>
<rect x="672" y="128" width="32" height="32" fill="#eceff4"/>
<rect x="704" y="128" width="32" height="32" fill="#3b4252"/>
<rect x="0" y="160" width="32" height="32" fill="#3b4252"/>
<rect x="32" y="160" width="32" height="32" fill="#eceff4"/>
<rect x="64" y="160" width="32" height="32" fill="#eceff4"/>
<rect x="96" y="160" width="32" height="32" fill="#eceff4"/>
<rect x="128" y="160" width="32" height="32" fill="#3b4252"/>
<rect x="160" y="160" width="32" height="32" fill="#eceff4"/>
<rect x="192" y="160" width="32" height="32" fill="#eceff4"/>
<rect x="224" y="160" width="32" height="32" fill="#eceff4"/>
<rect x="256" y="160" width="32" height="32" fill="#eceff4"/>
<rect x="288" y="160" width="32" height="32" fill="#eceff4"/>
<rect x="320" y="160" width="32" height="32" fill="#3b4252"/>
<rect x="352" y="160" width="32" height="32" fill="#eceff4"/>
<rect x="384" y="160" width="32" height="32" fill="#eceff4"/>
<rect x="416" y="160" width="32" height="32" fill="#eceff4"/>
<rect x="448" y="160" width="32" height="32" fill="#eceff4"/>
<rect x="480" y="160" width="32" height="32" fill="#eceff4"/>
<rect x="512" y="160" width="32" height="32" fill="#eceff4"/>
<rect x="544" y="160" width="32" height="32" fill="#eceff4"/>
<rect x="576" y="160" width="32" height="32" fill="#eceff4"/>
<rect x="608" y="160" width="32" height="32" fill="#eceff4"/>
<rect x="640" y="160" width="32" height="32" fill="#3b4252"/>
<rect x="672" y="160" width="32" height="32" fill="#eceff4"/>
<rect x="704" y="160" width="32" height="32" fill="#3b4252"/>
<rect x="0" y="192" width="32" height="32" fill="#3b4252"/>
<rect x="32" y="192" width="32" height="32" fill="#3b4252"/>
<rect x="64" y="192" width="32" height="32" fill="#3b4252"/>
<rect x="96" y="192" width="32" height="32" fill="#eceff4"/>
<rect x="128" y="192" width="32" height="32" fill="#3b4252"/>
<rect x="160" y="192" width="32" height="32" fill="#eceff4"/>
<rect x="192" y="192" width="32" height="32" fill="#3b4252"/>
<rect x="224" y="192" width="32" height="32" fill="#eceff4"/>
<rect x="256" y="192" width="32" height="32" fill="#3b4252"/>
<rect x="288" y="192" width="32" height="32" fill="#eceff4"/>
<rect x="320" y="192" width="32" height="32" fill="#3b4252"/>
<rect x="352" y="192" width="32" height="32" fill="#eceff4"/>
<rect x="384" y="192" width="32" height="32" fill="#3b4252"/>
<rect x="416" y="192" width="32" height="32" fill="#3b4252"/>
<rect x="448" y="192" width="32" height="32" fill="#3b4252"/>
<rect x="480" y="192" width="32" height="32" fill="#3b4252"/>
<rect x="512" y="192" width="32" height="32" fill="#3b4252"/>
<rect x="544" y="192" width="32" height="32" fill="#eceff4"/>
<rect x="576" y="192" width="32" height="32" fill="#3b4252"/>
<rect x="608" y="192" width="32" height="32" fill="#eceff4"/>
<rect x="640" y="192" width="32" height="32" fill="#3b4252"/>
<rect x="672" y="192" width="32" height="32" fill="#eceff4"/>
<rect x="704" y="192" width="32" height="32" fill="#3b4252"/>
<rect x="0" y="224" width="32" height="32" fill="#3b4252"/>
<rect x="32" y="224" width="32" height="32" fill="#eceff4"/>
<rect x="64" y="224" width="32" height="32" fill="#3b4252"/>
<rect x="96" y="224" width="32" height="32" fill="#eceff4"/>
<rect x="128" y="224" width="32" height="32" fill="#3b4252"/>
<rect x="160" y="224" width="32" height="32" fill="#eceff4"/>
<rect x="192" y="224" width="32" height="32" fill="#3b4252"/>
<rect x="224" y="224" width="32" height="32" fill="#eceff4"/>
<rect x="256" y="224" width="32" height="32" fill="#3b4252"/>
<rect x="288" y="224" width="32" height="32" fill="#eceff4"/>
<rect x="320" y="224" width="32" height="32" fill="#eceff4"/>
<rect x="352" y="224" width="32" height="32" fill="#eceff4"/>
<rect x="384" y="224" width="32" height="32" fill="#3b4252"/>
<rect x="416" y="224" width="32" height="32" fill="#eceff4"/>
<rect x="448" y="224" width="32" height="32" fill="#eceff4"/>
<rect x="480" y="224" width="32" height="32" fill="#eceff4"/>
<rect x="512" y="224" width="32" height="32" fill="#eceff4"/>
<rect x="544" y="224" width="32" height="32" fill="#eceff4"/>
<rect x="576" y="224" width="32" height="32" fill="#eceff4"/>
<rect x="608" y="224" width="32" height="32" fill="#eceff4"/>
<rect x="640" y="224" width="32" height="32" fill="#eceff4"/>
<rect x="672" y="224" width="32" height="32" fill="#eceff4"/>
<rect x="704" y="224" width="32" height="32" fill="#3b4252"/>
<rect x="0" y="256" width="32" height="32" fill="#3b4252"/>
<rect x="32" y="256" width="32" height="32" fill="#eceff4"/>
<rect x="64" y="256" width="32" height="32" fill="#3b4252"/>
<rect x="96" y="256" width="32" height="32" fill="#eceff4"/>
<rect x="128" y="256" width="32" height="32" fill="#3b4252"/>
<rect x="160" y="256" width="32" height="32" fill="#eceff4"/>
<rect x="192" y="256" width="32" height="32" fill="#3b4252"/>
<rect x="224" y="256" width="32" height="32" fill="#eceff4"/>
<rect x="256" y="256" width="32" height="32" fill="#3b4252"/>
<rect x="288" y="256" width="32" height="32" fill="#eceff4"/>
<rect x="320" y="256" width="32" height="32" fill="#3b4252"/>
<rect x="352" y="256" width="32" height="32" fill="#3b4252"/>
<rect x="384" y="256" width="32" height="32" fill="#3b4252"/>
<rect x="416" y="256" width="32" height="32" fill="#eceff4"/>
<rect x="448" y="256" width="32" height="32" fill="#3b4252"/>
<rect x="480" y="256" width="32" height="32" fill="#3b4252"/>
<rect x="512" y="256" width="32" height="32" fill="#3b4252"/>
<rect x="544" y="256" width="32" height="32" fill="#eceff4"/>
<rect x="576" y="256" width="32" height="32" fill="#3b4252"/>
<rect x="608" y="256" width="32" height="32" fill="#3b4252"/>
<rect x="640" y="256" width="32" height="32" fill="#3b4252"/>
<rect x="672" y="256" width="32" height="32" fill="#eceff4"/>
<rect x="704" y="256" width="32" height="32" fill="#3b4252"/>
<rect x="0" y="288" width="32" height="32" fill="#3b4252"/>
<rect x="32" y="288" width="32" height="32" fill="#eceff4"/>
<rect x="64" y="288" width="32" height="32" fill="#eceff4"/>
<rect x="96" y="288" width="32" height="32" fill="#eceff4"/>
<rect x="128" y="288" width="32" height="32" fill="#eceff4"/>
<rect x="160" y="288" width="32" height="32" fill="#eceff4"/>
<rect x="192" y="288" width="32" height="32" fill="#3b4252"/>
<rect x="224" y="288" width="32" height="32" fill="#eceff4"/>
<rect x="256" y="288" width="32" height="32" fill="#eceff4"/>
<rect x="288" y="288" width="32" height="32" fill="#eceff4"/>
<rect x="320" y="288" width="32" height="32" fill="#3b4252"/>
<rect x="352" y="288" width="32" height="32" fill="#eceff4"/>
<rect x="384" y="288" width="32" height="32" fill="#eceff4"/>
<rect x="416" y="288" width="32" height="32" fill="#eceff4"/>
<rect x="448" y="288" width="32" height="32" fill="#3b4252"/>
<rect x="480" y="288" width="32" height="32" fill="#eceff4"/>
<rect x="512" y="288" width="32" height="32" fill="#3b4252"/>
<rect x="544" y="288" width="32" height="32" fill="#eceff4"/>
<rect x="576" y="288" width="32" height="32" fill="#eceff4"/>
<rect x="608" y="288" width="32" height="32" fill="#eceff4"/>
<rect x="640" y="288" width="32" height="32" fill="#eceff4"/>
<rect x="672" y="288" width="32" height="32" fill="#eceff4"/>
<rect x="704" y="288" width="32" height="32" fill="#3b4252"/>
<rect x="0" y="320" width="32" height="32" fill="#3b4252"/>
<rect x="32" y="320" width="32" height="32" fill="#eceff4"/>
<rect x="64" y="320" width="32" height="32" fill="#3b4252"/>
<rect x="96" y="320" width="32" height="32" fill="#3b4252"/>
<rect x="128" y="320" width="32" height="32" fill="#3b4252"/>
<rect x="160" y="320" width="32" height="32" fill="#eceff4"/>
<rect x="192" y="320" width="32" height="32" fill="#3b4252"/>
<rect x="224" y="320" width="32" height="32" fill="#3b4252"/>
<rect x="256" y="320" width="32" height="32" fill="#3b4252"/>
<rect x="288" y="320" width="32" height="32" fill="#3b4252"/>
<rect x="320" y="320" width="32" height="32" fill="#3b4252"/>
<rect x="352" y="320" width="32" height="32" fill="#eceff4"/>
<rect x="384" y="320" width="32" height="32" fill="#3b4252"/>
<rect x="416" y="320" width="32" height="32" fill="#eceff4"/>
<rect x="448" y="320" width="32" height="32" fill="#3b4252"/>
<rect x="480" y="320" width="32" height="32" fill="#eceff4"/>
<rect x="512" y="320" width="32" height="32" fill="#3b4252"/>
<rect x="544" y="320" width="32" height="32" fill="#eceff4"/>
<rect x="576" y="320" width="32" height="32" fill="#3b4252"/>
<rect x="608" y="320" width="32" height="32" fill="#3b4252"/>
<rect x="640" y="320" width="32" height="32" fill="#3b4252"/>
<rect x="672" y="320" width="32" height="32" fill="#3b4252"/>
<rect x="704" y="320" width="32" height="32" fill="#3b4252"/>
<rect x="0" y="352" width="32" height="32" fill="#3b4252"/>
<rect x="32" y="352" width="32" height="32" fill="#eceff4"/>
<rect x="64" y="352" width="32" height="32" fill="#eceff4"/>
<rect x="96" y="352" width="32" height="32" fill="#eceff4"/>
<rect x="128" y="352" width="32" height="32" fill="#3b4252"/>
<rect x="160" y="352" width="32" height="32" fill="#eceff4"/>
<rect x="192" y="352" width="32" height="32" fill="#eceff4"/>
<rect x="224" y="352" width="32" height="32" fill="#eceff4"/>
<rect x="256" y="352" width="32" height="32" fill="#eceff4"/>
<rect x="288" y="352" width="32" height="32" fill="#eceff4"/>
<rect x="320" y="352" width="32" height="32" fill="#3b4252"/>
<rect x="352" y="352" width="32" height="32" fill="#eceff4"/>
<rect x="384" y="352" width="32" height="32" fill="#3b4252"/>
<rect x="416" y="352" width="32" height="32" fill="#eceff4"/>
<rect x="448" y="352" width="32" height="32" fill="#eceff4"/>
<rect x="480" y="352" width="32" height="32" fill="#eceff4"/>
<rect x="512" y="352" width="32" height="32" fill="#3b4252"/>
<rect x="544" y="352" width="32" height="32" fill="#eceff4"/>
<rect x="576" y="352" width="32" height="32" fill="#3b4252"/>
<rect x="608" y="352" width="32" height="32" fill="#eceff4"/>
<rect x="640" y="352" width="32" height="32" fill="#eceff4"/>
<rect x="672" y="352" width="32" height="32" fill="#eceff4"/>
<rect x="704" y="352" width="32" height="32" fill="#3b4252"/>
<rect x="0" y="384" width="32" height="32" fill="#3b4252"/>
<rect x="32" y="384" width="32" height="32" fill="#3b4252"/>
<rect x="64" y="384" width="32" height="32" fill="#3b4252"/>
<rect x="96" y="384" width="32" height="32" fill="#eceff4"/>
<rect x="128" y="384" width="32" height="32" fill="#3b4252"/>
<rect x="160" y="384" width="32" height="32" fill="#3b4252"/>
<rect x="192" y="384" width="32" height="32" fill="#3b4252"/>
<rect x="224" y="384" width="32" height="32" fill="#3b4252"/>
<rect x="256" y="384" width="32" height="32" fill="#3b4252"/>
<rect x="288" y="384" width="32" height="32" fill="#3b4252"/>
<rect x="320" y="384" width="32" height="32" fill="#3b4252"/>
<rect x="352" y="384" width="32" height="32" fill="#eceff4"/>
<rect x="384" y="384" width="32" height="32" fill="#3b4252"/>
<rect x="416" y="384" width="32" height="32" fill="#eceff4"/>
<rect x="448" y="384" width="32" height="32" fill="#3b4252"/>
<rect x="480" y="384" width="32" height="32" fill="#eceff4"/>
<rect x="512" y="384" width="32" height="32" fill="#3b4252"/>
<rect x="544" y="384" width="32" height="32" fill="#eceff4"/>
<rect x="576" y="384" width="32" height="32" fill="#3b4252"/>
<rect x="608" y="384" width="32" height="32" fill="#eceff4"/>
<rect x="640" y="384" width="32" height="32" fill="#3b4252"/>
<rect x="672" y="384" width="32" height="32" fill="#eceff4"/>
<rect x="704" y="384" width="32" height="32" fill="#3b4252"/>
<rect x="0" y="416" width="32" height="32" fill="#3b4252"/>
<rect x="32" y="416" width="32" height="32" fill="#eceff4"/>
<rect x="64" y="416" width="32" height="32" fill="#eceff4"/>
<rect x="96" y="416" width="32" height="32" fill="#eceff4"/>
<rect x="128" y="416" width="32" height="32" fill="#eceff4"/>
<rect x="160" y="416" width="32" height="32" fill="#eceff4"/>
<rect x="192" y="416" width="32" height="32" fill="#eceff4"/>
<rect x="224" y="416" width="32" height="32" fill="#eceff4"/>
<rect x="256" y="416" width="32" height="32" fill="#eceff4"/>
<rect x="288" y="416" width="32" height="32" fill="#eceff4"/>
<rect x="320" y="416" width="32" height="32" fill="#eceff4"/>
<rect x="352" y="416" width="32" height="32" fill="#eceff4"/>
<rect x="384" y="416" width="32" height="32" fill="#3b4252"/>
<rect x="416" y="416" width="32" height="32" fill="#eceff4"/>
<rect x="448" y="416" width="32" height="32" fill="#3b4252"/>
<rect x="480" y="416" width="32" height="32" fill="#eceff4"/>
<rect x="512" y="416" width="32" height="32" fill="#eceff4"/>
<rect x="544" y="416" width="32" height="32" fill="#eceff4"/>
<rect x="576" y="416" width="32" height="32" fill="#eceff4"/>
<rect x="608" y="416" width="32" height="32" fill="#eceff4"/>
<rect x="640" y="416" width="32" height="32" fill="#3b4252"/>
<rect x="672" y="416" width="32" height="32" fill="#d64545"/>
<rect x="704" y="416" width="32" height="32" fill="#3b4252"/>
<rect x="0" y="448" width="32" height="32" fill="#3b4252"/>
<rect x="32" y="448" width="32" height="32" fill="#3b4252"/>
<rect x="64" y="448" width="32" height="32" fill="#3b4252"/>
<rect x="96" y="448" width="32" height="32" fill="#3b4252"/>
<rect x="128" y="448" width="32" height="32" fill="#3b4252"/>
<rect x="160" y="448" width="32" height="32" fill="#3b4252"/>
<rect x="192" y="448" width="32" height="32" fill="#3b4252"/>
<rect x="224" y="448" width="32" height="32" fill="#3b4252"/>
<rect x="256" y="448" width="32" height="32" fill="#3b4252"/>
<rect x="288" y="448" width="32" height="32" fill="#3b4252"/>
<rect x="320" y="448" width="32" height="32" fill="#3b4252"/>
<rect x="352" y="448" width="32" height="32" fill="#3b4252"/>
<rect x="384" y="448" width="32" height="32" fill="#3b4252"/>
<rect x="416" y="448" width="32" height="32" fill="#3b4252"/>
<rect x="448" y="448" width="32" height="32" fill="#3b4252"/>
<rect x="480" y="448" width="32" height="32" fill="#3b4252"/>
<rect x="512" y="448" width="32" height="32" fill="#3b4252"/>
<rect x="544" y="448" width="32" height="32" fill="#3b4252"/>
<rect x="576" y="448" width="32" height="32" fill="#3b4252"/>
<rect x="608" y="448" width="32" height="32" fill="#3b4252"/>
<rect x="640" y="448" width="32" height="32" fill="#3b4252"/>
<rect x="672" y="448" width="32" height="32" fill="#3b4252"/>
<rect x="704" y="448" width="32" height="32" fill="#3b4252"/>
<polyline points="48.0,48.0 80.0,48.0 112.0,48.0 144.0,48.0 176.0,48.0 208.0,48.0 240.0,48.0 272.0,48.0 304.0,48.0 304.0,80.0 304.0,112.0 336.0,112.0 368.0,112.0 400.0,112.0 432.0,112.0 432.0,144.0 432.0,176.0 464.0,176.0 496.0,176.0 528.0,176.0 560.0,176.0 560.0,208.0 560.0,240.0 560.0,272.0 560.0,304.0 560.0,336.0 560.0,368.0 560.0,400.0 560.0,432.0 592.0,432.0 624.0,432.0 624.0,400.0 624.0,368.0 656.0,368.0 688.0,368.0 688.0,400.0 688.0,432.0" fill="none" stroke="#f39c12" stroke-width="5" stroke-linejoin="round" opacity="0.85"/>
<text x="48" y="55" font-family="sans-serif" font-size="20" font-weight="bold" fill="#fff" text-anchor="middle">A</text>
<text x="688" y="439" font-family="sans-serif" font-size="20" font-weight="bold" fill="#fff" text-anchor="middle">M</text>
<text x="8" y="501" font-family="sans-serif" font-size="15" fill="#333">1 rutas óptimas de 36 pasos (1 celda = 25 cm)</text>
</svg>